<svg width="14" height="21" viewBox="0 0 14 21" fill="none" xmlns="http://www.w3.org/2000/svg">
<path d="M7.00004 20.3599C6.55562 20.3599 6.15765 20.1294 5.93552 19.7433C5.93317 19.7393 5.93091 19.7352 5.92864 19.7311L0.879945 10.4902C-0.325185 8.28435 -0.290629 5.66615 0.9724 3.48653C2.20803 1.35415 4.40276 0.0513968 6.84332 0.0016105C6.94759 -0.000536833 7.05241 -0.000536833 7.1566 0.0016105C9.5972 0.0513968 11.7919 1.35415 13.0276 3.48653C14.2906 5.66615 14.3252 8.28431 13.1201 10.4902L8.07136 19.7311C8.06909 19.7352 8.06683 19.7393 8.06448 19.7433C7.84239 20.1294 7.44446 20.3599 7.00004 20.3599ZM7 1.27251C6.9563 1.27251 6.91271 1.27295 6.86921 1.27383C4.877 1.31447 3.08414 2.38014 2.07334 4.12453C1.03519 5.91616 1.00648 8.06775 1.9966 9.88001L7 19.038L12.0034 9.88005C12.9935 8.06775 12.9648 5.91616 11.9266 4.12453C10.9158 2.38018 9.12292 1.31447 7.13071 1.27383C7.08732 1.27295 7.0437 1.27251 7 1.27251Z" fill="#4A8AE5"/>
<path d="M6.99861 9.22573C5.41988 9.22573 4.1355 7.94135 4.1355 6.36262C4.1355 4.7839 5.41988 3.49951 6.99861 3.49951C8.57733 3.49951 9.86172 4.7839 9.86172 6.36262C9.86172 7.94135 8.57737 9.22573 6.99861 9.22573ZM6.99861 4.77201C6.12154 4.77201 5.40799 5.48556 5.40799 6.36262C5.40799 7.23969 6.12154 7.95324 6.99861 7.95324C7.87567 7.95324 8.58922 7.23969 8.58922 6.36262C8.58922 5.48556 7.87567 4.77201 6.99861 4.77201Z" fill="#4A8AE5"/>
</svg>
