<svg width="24" height="18" viewBox="0 0 24 18" fill="none" xmlns="http://www.w3.org/2000/svg">
<path d="M21.5538 0H2.07692C0.933139 0 0 0.932123 0 2.07692V15.9231C0 17.064 0.928985 18 2.07692 18H21.5538C22.6948 18 23.6308 17.071 23.6308 15.9231V2.07692C23.6308 0.936 22.7018 0 21.5538 0ZM21.267 1.38462L11.8594 10.7923L2.37042 1.38462H21.267ZM1.38462 15.6364V2.35703L8.05288 8.96811L1.38462 15.6364ZM2.36368 16.6154L9.03614 9.94292L11.3742 12.2609C11.6448 12.5292 12.0816 12.5283 12.3511 12.2587L14.6308 9.97906L21.2671 16.6154H2.36368ZM22.2462 15.6363L15.6098 9L22.2462 2.36363V15.6363Z" fill="#4A8AE5"/>
</svg>
